<svg xmlns="http://www.w3.org/2000/svg" viewBox="0 0 24 24" width="48" height="48">
  <path fill="#25D366" d="M11.95 0C5.35 0 0 5.35 0 11.95c0 2.13.56 4.21 1.62 6.04L.16 24l6.19-1.63c1.78.98 3.81 1.5 5.9 1.5h.01c6.59 0 11.95-5.36 11.95-11.96 0-3.19-1.24-6.19-3.5-8.45C18.45 1.24 15.35 0 11.95 0z"/>
  <path fill="#ffffff" d="M17.47 14.38c-.3-.15-1.76-.87-2.03-.97-.27-.1-.47-.15-.67.15-.2.3-.77.97-.94 1.16-.17.2-.35.22-.64.08-.3-.15-1.26-.46-2.39-1.48-.88-.79-1.48-1.76-1.65-2.06-.17-.3-.02-.46.13-.61.13-.13.3-.35.45-.52.15-.17.2-.3.3-.5.1-.2.05-.37-.03-.52-.08-.15-.67-1.61-.92-2.21-.24-.58-.49-.5-.67-.51H8c-.2 0-.52.07-.79.37-.27.3-1.04 1.02-1.04 2.48s1.07 2.88 1.21 3.07c.15.2 2.1 3.2 5.08 4.49.71.31 1.26.49 1.69.63.71.23 1.36.2 1.87.12.57-.09 1.76-.72 2.01-1.41.25-.69.25-1.29.17-1.41-.07-.12-.27-.2-.57-.35z"/>
</svg>